<svg width="182" height="45" viewBox="0 0 182 45" fill="none" xmlns="http://www.w3.org/2000/svg">
<path fill-rule="evenodd" clip-rule="evenodd" d="M0.0569902 4.66996C-0.02358 4.80034 -0.0181044 5.09367 0.0695059 5.32183C0.192056 5.64098 0.612638 5.73641 1.89863 5.73641H3.56844L3.43207 26.2049L1.73723 26.3353C0.462449 26.4333 0.0423885 26.5626 0.0423885 26.8568C0.0423885 27.1895 0.848612 27.2583 5.45285 27.3183C10.7308 27.3871 10.8633 27.3759 10.8633 26.862C10.8633 26.3874 10.6951 26.3353 9.16846 26.3353H7.47362V15.5678L9.74445 15.7422C13.2927 16.015 13.8345 16.6348 14.2668 20.9154C14.7179 25.3804 15.2055 26.4967 17.0477 27.2815C18.8554 28.0517 22.4931 27.4429 22.2829 26.4054C22.1875 25.9348 21.9105 25.9087 20.3385 26.2229C19.1091 26.4685 18.7347 25.6985 18.4155 22.2703C18.27 20.7055 18.0226 19.0148 17.8659 18.5129C17.4761 17.265 16.2135 16.0001 14.83 15.4718L13.6775 15.0317L14.5711 14.5733C18.7647 12.4219 18.5149 7.0902 14.1244 5.0457C12.8708 4.46189 12.5681 4.43764 6.51121 4.43529C3.00132 4.43373 0.138603 4.53803 0.0569902 4.66996ZM79.7469 5.01936C79.8217 5.54633 79.9962 5.61386 81.46 5.68374L83.0897 5.76118V26.3353H81.3948C79.8739 26.3353 79.7 26.3887 79.7 26.8568C79.7 27.3613 79.8739 27.3782 85.0453 27.3782C90.1731 27.3782 90.3905 27.3576 90.3905 26.8693C90.3905 26.4268 90.177 26.3499 88.7609 26.2826L87.1312 26.2049L86.9894 16.427H96.6484V26.3353H94.9536C93.4326 26.3353 93.2587 26.3887 93.2587 26.8568C93.2587 27.3613 93.4326 27.3782 98.604 27.3782C103.775 27.3782 103.949 27.3613 103.949 26.8568C103.949 26.3887 103.775 26.3353 102.254 26.3353H100.56V5.76118L102.189 5.68374C103.653 5.61386 103.827 5.54633 103.902 5.01936L103.986 4.43269H93.2225L93.3057 5.01936C93.3805 5.54633 93.5549 5.61386 95.0188 5.68374L96.6484 5.76118V15.1232H87.0008V5.73641H88.6957C90.3298 5.73641 90.3905 5.71294 90.3905 5.08455V4.43269H79.6637L79.7469 5.01936ZM7.66918 5.62481C7.56149 5.73406 7.47362 7.81559 7.47362 10.2507V14.6781L9.44225 14.5118C10.5249 14.4203 11.6382 14.2237 11.9165 14.0748C12.8517 13.5741 13.3167 12.2683 13.307 10.1691C13.2966 7.92354 12.8176 6.73376 11.6899 6.15047C10.8404 5.71112 7.95548 5.33408 7.66918 5.62481ZM114.169 7.31079C110.011 8.15743 106.407 12.3426 106.096 16.6846C105.722 21.9141 108.825 26.3467 113.704 27.5509C115.153 27.9083 115.734 27.9339 117.014 27.6956C120.197 27.1037 122.821 25.0501 124.343 21.96C125.147 20.3272 125.2 20.0513 125.2 17.4762C125.2 14.9517 125.136 14.5965 124.396 13.0365C122.482 8.99651 118.057 6.51917 114.169 7.31079ZM22.3822 8.1423C22.4558 8.66067 22.6383 8.74489 23.8354 8.81372L25.2043 8.89273L25.2105 15.5931C25.2139 19.2785 25.3234 22.7545 25.4541 23.3174C26.2345 26.6826 29.729 28.4327 34.1059 27.6505C35.637 27.3769 36.075 27.1655 37.1923 26.1611C39.1515 24.3995 39.2845 23.7286 39.2845 15.6111V8.89273L40.6534 8.81372C41.8461 8.74515 42.033 8.65936 42.1058 8.1483C42.1887 7.56449 42.1715 7.56163 38.6326 7.56163C35.0938 7.56163 35.0766 7.56449 35.1595 8.1483C35.2323 8.65936 35.4192 8.74515 36.6119 8.81372L37.9808 8.89273L37.975 15.8538C37.9685 23.733 37.8543 24.3059 36.009 25.7136C35.1074 26.4015 34.8406 26.4656 32.8798 26.4656C31.1052 26.4656 30.6353 26.3759 30.1506 25.9441C28.856 24.7914 28.7499 24.1082 28.6446 16.2452L28.5462 8.89273L30.0693 8.81398C31.3923 8.74541 31.5925 8.6664 31.5925 8.21349C31.5925 7.71416 31.3949 7.68887 26.9453 7.62081L22.2983 7.54937L22.3822 8.1423ZM42.8304 7.78065C42.7436 7.92119 42.7441 8.22261 42.8317 8.45077C42.9498 8.75871 43.3521 8.86535 44.3969 8.86535H45.8031V26.3092L44.3039 26.3874C43.1798 26.4461 42.8046 26.5634 42.8046 26.8568C42.8046 27.1809 43.5427 27.2812 47.1069 27.4421C49.8275 27.5649 52.0216 27.5357 53.0751 27.3631C56.6671 26.7736 58.582 25.0378 58.7885 22.1845C58.9562 19.8657 57.8686 18.1028 55.7221 17.2136C54.9631 16.8992 54.6432 16.427 55.1892 16.427C55.7185 16.427 57.5171 14.5386 57.7977 13.6881C58.4407 11.7401 57.4282 9.58501 55.3203 8.4153C54.0273 7.69799 53.9712 7.69122 48.5024 7.60856C45.0897 7.55693 42.9282 7.62238 42.8304 7.78065ZM59.9303 8.1483C60.0012 8.64763 60.1957 8.74671 61.2364 8.81372L62.459 8.89273L68.2272 19.0438V26.3353H66.7931C65.5329 26.3353 65.359 26.3984 65.359 26.8568C65.359 27.3589 65.5329 27.3782 70.0524 27.3782C74.5719 27.3782 74.7458 27.3589 74.7458 26.8568C74.7458 26.3984 74.5719 26.3353 73.3117 26.3353H71.8776V18.0251L76.7014 8.88021L77.8878 8.87291C79.1451 8.86483 79.7487 8.51334 79.5214 7.92093C79.415 7.64376 78.6789 7.56163 76.2978 7.56163C74.6006 7.56163 73.1462 7.66827 73.0656 7.7989C72.7107 8.3728 73.2588 8.86535 74.2522 8.86535C74.8105 8.86535 75.2673 8.93184 75.2673 9.01293C75.2673 9.31122 71.22 16.6804 71.0545 16.684C70.8897 16.6874 66.6627 9.32922 66.6627 9.03875C66.6627 8.96078 67.1029 8.8604 67.6405 8.81581C68.4259 8.75088 68.6348 8.61947 68.7018 8.1483L68.7849 7.56163H59.8471L59.9303 8.1483ZM127.255 7.94023C126.999 8.60617 127.414 8.86535 128.735 8.86535H130.024V26.3353H128.59C127.329 26.3353 127.156 26.3984 127.156 26.8568C127.156 27.3524 127.329 27.3782 130.676 27.3782C134.022 27.3782 134.196 27.3524 134.196 26.8568C134.196 26.3984 134.022 26.3353 132.762 26.3353H131.327V18.8605C131.327 14.7496 131.381 11.4394 131.447 11.5051C131.512 11.5706 132.785 15.1397 134.275 19.436C135.953 24.2741 137.124 27.2742 137.35 27.3175C137.611 27.367 138.31 25.644 139.784 21.3204C140.922 17.9836 142.178 14.3736 142.575 13.298L143.296 11.3424L143.322 26.3353H141.888C140.627 26.3353 140.454 26.3984 140.454 26.8568C140.454 27.3589 140.627 27.3782 145.147 27.3782C149.666 27.3782 149.84 27.3589 149.84 26.8568C149.84 26.3984 149.666 26.3353 148.406 26.3353H146.972V8.89273L148.341 8.81372C149.539 8.74489 149.72 8.66093 149.794 8.14048L149.879 7.54572L143.238 7.692L141.843 11.7335C141.075 13.9564 140.02 16.9941 139.497 18.4837L138.546 21.1923L133.874 7.56163H130.637C128.048 7.56163 127.371 7.6375 127.255 7.94023ZM150.669 8.14439C150.742 8.66014 150.927 8.74489 152.122 8.81372L153.491 8.89273V26.3353H152.057C150.793 26.3353 150.623 26.3978 150.623 26.8604C150.623 27.3772 150.754 27.3842 159.162 27.3167L167.701 27.2479V24.1189C167.701 21.1874 167.669 20.99 167.191 20.99C166.815 20.99 166.597 21.2831 166.356 22.1125C165.888 23.7309 165.077 24.9186 163.973 25.6036C163.149 26.1144 162.579 26.2158 160.075 26.2969L157.141 26.3916V17.4699H158.302C160.344 17.4699 161.184 18.2297 161.69 20.5347C161.821 21.1311 162.024 21.3811 162.377 21.3811C162.852 21.3811 162.878 21.1441 162.878 16.799C162.878 12.6649 162.835 12.225 162.444 12.3012C162.19 12.3505 161.835 12.9079 161.588 13.6464C160.939 15.5863 160.24 16.1662 158.548 16.1662H157.141V8.8205L160.119 8.90811C162.872 8.98894 163.152 9.04526 163.805 9.64758C164.194 10.0061 164.792 10.9237 165.134 11.6866C165.586 12.6949 165.879 13.05 166.207 12.9867C166.599 12.9111 166.658 12.558 166.658 10.2958V7.692L150.585 7.55406L150.669 8.14439ZM113.544 8.69899C111.055 9.80351 109.953 12.5773 109.948 17.7479C109.943 23.5703 111.484 26.2985 114.917 26.5467C117.062 26.7019 118.157 26.4359 119.222 25.5014C120.928 24.0029 121.444 22.1005 121.438 17.321C121.432 12.4741 120.479 9.98812 118.206 8.88777C116.943 8.27607 114.701 8.18533 113.544 8.69899ZM49.3884 8.75662C49.281 8.86431 49.1928 10.5753 49.1928 12.5593V16.1662H50.8731C52.2693 16.1662 52.6761 16.0609 53.2784 15.5425C53.9285 14.9835 54.0137 14.717 54.1019 12.9734C54.2064 10.9052 53.8104 9.64315 52.9058 9.16025C52.2735 8.82285 49.6259 8.51908 49.3884 8.75662ZM49.1928 26.3924L51.132 26.2943C52.7353 26.2135 53.1853 26.0889 53.7319 25.5757C54.6758 24.6889 55.0116 23.4225 54.8737 21.2711C54.6807 18.267 53.8424 17.4699 50.8754 17.4699H49.1928V26.3924ZM0.306002 37.5423C0.21448 37.6904 0.299222 37.873 0.49426 37.9478C1.1529 38.2005 8.38936 37.9509 8.32156 37.6777C8.23239 37.3165 0.52607 37.1867 0.306002 37.5423ZM158.839 37.5423C158.747 37.6904 158.832 37.873 159.027 37.9478C159.686 38.2005 166.922 37.9509 166.855 37.6777C166.765 37.3165 159.059 37.1867 158.839 37.5423Z" fill="#BF3448"/>
<path d="M15.1994 39.4831H16.9151V40.1547H14.3671V35.0806H15.1994V39.4831Z" fill="#BF3448"/>
<path d="M22.3786 35.0806V38.3149C22.3786 38.6994 22.4783 38.989 22.6779 39.1837C22.8823 39.3784 23.1646 39.4758 23.5248 39.4758C23.8898 39.4758 24.1721 39.3784 24.3717 39.1837C24.5761 38.989 24.6783 38.6994 24.6783 38.3149V35.0806H25.5106V38.3003C25.5106 38.714 25.4206 39.0645 25.2405 39.3517C25.0604 39.6388 24.8195 39.853 24.5177 39.9941C24.2159 40.1353 23.8825 40.2059 23.5175 40.2059C23.1524 40.2059 22.819 40.1353 22.5173 39.9941C22.2204 39.853 21.9843 39.6388 21.8091 39.3517C21.6339 39.0645 21.5463 38.714 21.5463 38.3003V35.0806H22.3786Z" fill="#BF3448"/>
<path d="M32.8657 37.6213L34.4427 40.1547H33.5082L32.362 38.3149L31.2887 40.1547H30.3615L31.9385 37.6213L30.3542 35.0806H31.2887L32.4423 36.9351L33.5228 35.0806H34.45L32.8657 37.6213Z" fill="#BF3448"/>
<path d="M40.1239 35.0806V38.3149C40.1239 38.6994 40.2237 38.989 40.4233 39.1837C40.6277 39.3784 40.91 39.4758 41.2702 39.4758C41.6352 39.4758 41.9175 39.3784 42.1171 39.1837C42.3215 38.989 42.4237 38.6994 42.4237 38.3149V35.0806H43.256V38.3003C43.256 38.714 43.1659 39.0645 42.9859 39.3517C42.8058 39.6388 42.5648 39.853 42.2631 39.9941C41.9613 40.1353 41.6279 40.2059 41.2629 40.2059C40.8978 40.2059 40.5644 40.1353 40.2626 39.9941C39.9657 39.853 39.7297 39.6388 39.5545 39.3517C39.3792 39.0645 39.2916 38.714 39.2916 38.3003V35.0806H40.1239Z" fill="#BF3448"/>
<path d="M50.9177 40.1547L49.7496 38.1251H49.1144V40.1547H48.2821V35.0806H50.0343C50.4237 35.0806 50.7522 35.1488 51.0199 35.2851C51.2925 35.4214 51.4945 35.6039 51.6259 35.8326C51.7622 36.0614 51.8303 36.3169 51.8303 36.5992C51.8303 36.9302 51.733 37.232 51.5383 37.5045C51.3485 37.7722 51.054 37.9548 50.6549 38.0521L51.9106 40.1547H50.9177ZM49.1144 37.4607H50.0343C50.3458 37.4607 50.5795 37.3829 50.7352 37.2271C50.8958 37.0713 50.9761 36.8621 50.9761 36.5992C50.9761 36.3364 50.8983 36.132 50.7425 35.986C50.5868 35.8351 50.3507 35.7596 50.0343 35.7596H49.1144V37.4607Z" fill="#BF3448"/>
<path d="M60.5975 35.0806L58.9183 38.3149V40.1547H58.086V38.3149L56.3995 35.0806H57.3267L58.5021 37.5702L59.6776 35.0806H60.5975Z" fill="#BF3448"/>
<path d="M73.675 40.1547L72.5069 38.1251H71.8717V40.1547H71.0394V35.0806H72.7916C73.181 35.0806 73.5095 35.1488 73.7772 35.2851C74.0498 35.4214 74.2518 35.6039 74.3832 35.8326C74.5195 36.0614 74.5876 36.3169 74.5876 36.5992C74.5876 36.9302 74.4903 37.232 74.2956 37.5045C74.1058 37.7722 73.8113 37.9548 73.4122 38.0521L74.6679 40.1547H73.675ZM71.8717 37.4607H72.7916C73.1031 37.4607 73.3367 37.3829 73.4925 37.2271C73.6531 37.0713 73.7334 36.8621 73.7334 36.5992C73.7334 36.3364 73.6556 36.132 73.4998 35.986C73.344 35.8351 73.108 35.7596 72.7916 35.7596H71.8717V37.4607Z" fill="#BF3448"/>
<path d="M80.4271 35.7523V37.2417H82.1793V37.9207H80.4271V39.4758H82.3984V40.1547H79.5948V35.0733H82.3984V35.7523H80.4271Z" fill="#BF3448"/>
<path d="M90.425 39.118H88.3005L87.9354 40.1547H87.0666L88.8845 35.0733H89.8482L91.6662 40.1547H90.7901L90.425 39.118ZM90.1914 38.439L89.3664 36.0809L88.5341 38.439H90.1914Z" fill="#BF3448"/>
<path d="M97.2314 39.4831H98.9471V40.1547H96.3991V35.0806H97.2314V39.4831Z" fill="#BF3448"/>
<path d="M110.257 35.7523V37.2417H112.009V37.9207H110.257V39.4758H112.228V40.1547H109.425V35.0733H112.228V35.7523H110.257Z" fill="#BF3448"/>
<path d="M118.868 40.2059C118.527 40.2059 118.22 40.1474 117.948 40.0306C117.675 39.909 117.461 39.7386 117.305 39.5196C117.149 39.3005 117.072 39.045 117.072 38.753H117.962C117.982 38.972 118.067 39.1521 118.218 39.2932C118.374 39.4344 118.59 39.505 118.868 39.505C119.155 39.505 119.379 39.4368 119.539 39.3005C119.7 39.1594 119.78 38.9793 119.78 38.7603C119.78 38.5899 119.729 38.4512 119.627 38.3441C119.53 38.2371 119.405 38.1543 119.255 38.0959C119.108 38.0375 118.904 37.9742 118.641 37.9061C118.31 37.8185 118.04 37.7309 117.831 37.6432C117.626 37.5508 117.451 37.4096 117.305 37.2198C117.159 37.03 117.086 36.7769 117.086 36.4605C117.086 36.1685 117.159 35.9129 117.305 35.6939C117.451 35.4749 117.656 35.307 117.918 35.1902C118.181 35.0733 118.485 35.0149 118.831 35.0149C119.323 35.0149 119.724 35.1391 120.036 35.3873C120.352 35.6306 120.527 35.9665 120.561 36.3948H119.641C119.627 36.2098 119.539 36.0517 119.379 35.9202C119.218 35.7888 119.006 35.7231 118.743 35.7231C118.505 35.7231 118.31 35.784 118.159 35.9056C118.009 36.0273 117.933 36.2025 117.933 36.4313C117.933 36.5871 117.979 36.716 118.072 36.8183C118.169 36.9156 118.291 36.9935 118.437 37.0519C118.583 37.1103 118.782 37.1736 119.035 37.2417C119.371 37.3342 119.644 37.4267 119.853 37.5191C120.067 37.6116 120.247 37.7552 120.393 37.9499C120.544 38.1397 120.62 38.3952 120.62 38.7165C120.62 38.9744 120.549 39.2178 120.408 39.4466C120.272 39.6753 120.07 39.8603 119.802 40.0014C119.539 40.1377 119.228 40.2059 118.868 40.2059Z" fill="#BF3448"/>
<path d="M128.822 35.0806V35.7596H127.472V40.1547H126.639V35.7596H125.281V35.0806H128.822Z" fill="#BF3448"/>
<path d="M136.667 39.118H134.542L134.177 40.1547H133.308L135.126 35.0733H136.09L137.908 40.1547H137.032L136.667 39.118ZM136.433 38.439L135.608 36.0809L134.776 38.439H136.433Z" fill="#BF3448"/>
<path d="M145.919 35.0806V35.7596H144.568V40.1547H143.736V35.7596H142.378V35.0806H145.919Z" fill="#BF3448"/>
<path d="M151.537 35.7523V37.2417H153.289V37.9207H151.537V39.4758H153.508V40.1547H150.704V35.0733H153.508V35.7523H151.537Z" fill="#BF3448"/>
</svg>
